name C:\Users\Nicos\Desktop\Gil_twoSteps\Study2\ExperimentalData\IK_Splined\twoSteps_IK_BSplines_150_meshInts_study2_p02_s_01_lowIK_modROI.mot
datacolumns 38
datarows 15
range 0.54600000 0.55659465
endheader
                time	         pelvis_tilt	         pelvis_list	     pelvis_rotation	           pelvis_tx	           pelvis_ty	           pelvis_tz	       hip_flexion_r	     hip_adduction_r	      hip_rotation_r	        knee_angle_r	       ankle_angle_r	    subtalar_angle_r	         mtp_angle_r	       hip_flexion_l	     hip_adduction_l	      hip_rotation_l	        knee_angle_l	       ankle_angle_l	    subtalar_angle_l	         mtp_angle_l	    lumbar_extension	      lumbar_bending	     lumbar_rotation	          arm_flex_r	           arm_add_r	           arm_rot_r	        elbow_flex_r	           pro_sup_r	        wrist_flex_r	         wrist_dev_r	          arm_flex_l	           arm_add_l	           arm_rot_l	        elbow_flex_l	           pro_sup_l	        wrist_flex_l	         wrist_dev_l	
          0.54600000	        -23.03590355	         12.59706933	         -7.18985090	         -0.28945035	          0.87242855	          0.35077883	        -11.57063750	        -16.63081307	          0.60312216	        -25.40011593	        -42.87253363	        -15.79194520	         -5.87607083	         88.26620603	          0.78502137	        -11.20099242	        -86.12907683	          6.55785176	        -14.41614084	          7.20141304	        -14.97785681	        -23.77670144	         -7.01600171	         55.89679749	        -12.95114783	         24.70488511	        141.31950943	         60.41790122	        -18.61238925	         10.24872908	        -76.17644204	          4.62727598	        -44.93680834	         52.75190421	         63.40123269	          1.35591121	         25.46722150	
          0.54645068	        -23.02480818	         12.51631269	         -7.09819955	         -0.28693589	          0.87273662	          0.35083400	        -11.53124549	        -16.48741414	          0.48901695	        -25.68300583	        -42.85382965	        -15.86802451	         -5.94037976	         88.13120342	          0.80491255	        -11.16178741	        -85.93165852	          6.56197731	        -14.39929974	          7.19692632	        -15.04965355	        -23.73339785	         -7.07866146	         55.51635347	        -13.08139350	         24.65970293	        141.44063730	         60.38448451	        -18.63501547	         10.25718615	        -76.00624730	          4.61783756	        -44.94995602	         52.79146528	         63.39432384	          1.36428761	         25.46081485	
          0.54787465	        -22.98274699	         12.26009394	         -6.80956820	         -0.27898988	          0.87371471	          0.35101307	        -11.40090926	        -16.03361671	          0.13206215	        -26.59572536	        -42.77136059	        -16.08779497	         -6.10645981	         87.69004371	          0.86876130	        -11.03784101	        -85.31195147	          6.57185398	        -14.34213818	          7.18564141	        -15.28908235	        -23.59517596	         -7.26878271	         54.29267938	        -13.49417841	         24.49244894	        141.81013783	         60.27942940	        -18.70740502	         10.28557283	        -75.45891476	          4.57247390	        -44.98283606	         52.92699298	         63.38085660	          1.38976315	         25.43961007	
          0.54890667	        -22.93820613	         12.07227193	         -6.60228971	         -0.27322834	          0.87443306	          0.35115236	        -11.29466102	        -15.70329371	         -0.11947208	        -27.29515093	        -42.66468548	        -16.20571158	         -6.15234870	         87.34100111	          0.91704380	        -10.94786182	        -84.87095850	          6.57267344	        -14.29278222	          7.18326533	        -15.48785502	        -23.49219025	         -7.39080170	         53.36242550	        -13.79587438	         24.32206936	        142.05141172	         60.20435103	        -18.76167500	         10.30948907	        -75.04299860	          4.50840505	        -44.98928320	         53.04635063	         63.38787800	          1.40623868	         25.42231059	
          0.54890667	        -22.93820613	         12.07227193	         -6.60228971	         -0.27322834	          0.87443306	          0.35115236	        -11.29466102	        -15.70329371	         -0.11947208	        -27.29515093	        -42.66468548	        -16.20571158	         -6.15234870	         87.34100111	          0.91704380	        -10.94786182	        -84.87095850	          6.57267344	        -14.29278222	          7.18326533	        -15.48785502	        -23.49219025	         -7.39080170	         53.36242550	        -13.79587438	         24.32206936	        142.05141172	         60.20435103	        -18.76167500	         10.30948907	        -75.04299860	          4.50840505	        -44.98928320	         53.04635063	         63.38787800	          1.40623868	         25.42231059	
          0.54935735	        -22.91875511	         11.99024993	         -6.51177105	         -0.27071227	          0.87474677	          0.35121319	        -11.24826234	        -15.55904143	         -0.22931725	        -27.60059055	        -42.61810039	        -16.25720584	         -6.17238841	         87.18857397	          0.93812881	        -10.90856785	        -84.67837657	          6.57303130	        -14.27122844	          7.18222769	        -15.57465918	        -23.44721631	         -7.44408748	         52.95618299	        -13.92762522	         24.24766447	        142.15677620	         60.17156425	        -18.78537473	         10.31993331	        -74.86136773	          4.48042613	        -44.99209867	         53.09847419	         63.39094425	          1.41343355	         25.41475590	
          0.55078132	        -22.85221329	         11.73136948	         -6.22700420	         -0.26276063	          0.87574190	          0.35140849	        -11.09761141	        -15.10462769	         -0.57359927	        -28.57728679	        -42.46024251	        -16.40490983	         -6.21644210	         86.69637393	          1.00515911	        -10.78488837	        -84.07316177	          6.57172893	        -14.20136505	          7.18083026	        -15.85796070	        -23.30466886	         -7.60502389	         51.65568312	        -14.34317627	         23.99074325	        142.47914074	         60.06781396	        -18.86226607	         10.35482408	        -74.28001645	          4.37915914	        -44.99327156	         53.27112458	         63.40643784	          1.43595122	         25.39017459	
          0.55181333	        -22.78962506	         11.54452567	         -6.02410984	         -0.25699243	          0.87647428	          0.35155877	        -10.97698768	        -14.77914825	         -0.81525223	        -29.31799870	        -42.31570170	        -16.46959567	         -6.19395548	         86.30973369	          1.05489795	        -10.69658962	        -83.64375954	          6.56391235	        -14.14575408	          7.18513099	        -16.08880567	        -23.20009231	         -7.70068846	         50.66530350	        -14.64228887	         23.74287118	        142.68298842	         59.99217666	        -18.92366993	         10.38545321	        -73.83757917	          4.26942624	        -44.97230672	         53.41874024	         63.43406564	          1.45166289	         25.37034941	
          0.55181333	        -22.78962506	         11.54452567	         -6.02410984	         -0.25699243	          0.87647428	          0.35155877	        -10.97698768	        -14.77914825	         -0.81525223	        -29.31799870	        -42.31570170	        -16.46959567	         -6.19395548	         86.30973369	          1.05489795	        -10.69658962	        -83.64375954	          6.56391235	        -14.14575408	          7.18513099	        -16.08880567	        -23.20009231	         -7.70068846	         50.66530350	        -14.64228887	         23.74287118	        142.68298842	         59.99217666	        -18.92366993	         10.38545321	        -73.83757917	          4.26942624	        -44.97230672	         53.41874024	         63.43406564	          1.45166289	         25.37034941	
          0.55226401	        -22.76229275	         11.46293085	         -5.93550573	         -0.25447345	          0.87679411	          0.35162440	        -10.92431121	        -14.63701115	         -0.92078225	        -29.64146810	        -42.25258063	        -16.49784401	         -6.18413556	         86.14088763	          1.07661894	        -10.65802949	        -83.45623929	          6.56049884	        -14.12146874	          7.18700912	        -16.18961582	        -23.15442366	         -7.74246525	         50.23280404	        -14.77291155	         23.63462527	        142.77200884	         59.95914580	        -18.95048504	         10.39882898	        -73.64436651	          4.22150581	        -44.96315136	         53.48320410	         63.44613072	          1.45852419	         25.36169174	
          0.55368799	        -22.67299069	         11.20616599	         -5.65645769	         -0.24651285	          0.87780672	          0.35183299	        -10.75491946	        -14.19026930	         -1.25289945	        -30.67017996	        -42.05010495	        -16.57820228	         -6.14428458	         85.60084842	          1.14558063	        -10.53696921	        -82.86599094	          6.54798595	        -14.04459590	          7.19398563	        -16.51355008	        -23.01023867	         -7.86876539	         48.85436877	        -15.18371386	         23.27603666	        143.04517388	         59.85453040	        -19.03731099	         10.44277408	        -73.02867968	          4.06069753	        -44.92757690	         53.69190728	         63.48803768	          1.48033260	         25.33388323	
          0.55472000	        -22.59549237	         11.02459837	         -5.45814698	         -0.24073625	          0.87854958	          0.35198949	        -10.61932214	        -13.87671224	         -1.48789269	        -31.44473679	        -41.89016879	        -16.59782489	         -6.07709416	         85.18100172	          1.19700269	        -10.45259152	        -82.44793223	          6.53141706	        -13.98827036	          7.20356727	        -16.77182983	        -22.90621580	         -7.93556587	         47.80363355	        -15.47313988	         22.94418959	        143.20796986	         59.77761960	        -19.10935963	         10.48193028	        -72.55982915	          3.90334652	        -44.87293615	         53.86497376	         63.53484715	          1.49670034	         25.31175896	
          0.55472000	        -22.59549237	         11.02459837	         -5.45814698	         -0.24073625	          0.87854958	          0.35198949	        -10.61932214	        -13.87671224	         -1.48789269	        -31.44473679	        -41.89016879	        -16.59782489	         -6.07709416	         85.18100172	          1.19700269	        -10.45259152	        -82.44793223	          6.53141706	        -13.98827036	          7.20356727	        -16.77182983	        -22.90621580	         -7.93556587	         47.80363355	        -15.47313988	         22.94418959	        143.20796986	         59.77761960	        -19.10935963	         10.48193028	        -72.55982915	          3.90334652	        -44.87293615	         53.86497376	         63.53484715	          1.49670034	         25.31175896	
          0.55517068	        -22.56164880	         10.94530767	         -5.37154456	         -0.23821361	          0.87887398	          0.35205783	        -10.56010670	        -13.73978166	         -1.59051439	        -31.78298628	        -41.82032456	        -16.60639409	         -6.04775206	         84.99765438	          1.21945874	        -10.41574373	        -82.26536571	          6.52418141	        -13.96367296	          7.20775158	        -16.88462078	        -22.86078895	         -7.96473768	         47.34477676	        -15.59953243	         22.79927175	        143.27906297	         59.74403260	        -19.14082333	         10.49902981	        -72.35508181	          3.83463123	        -44.84907450	         53.94055201	         63.55528887	          1.50384814	         25.30209727	
          0.55659465	        -22.45342385	         10.69584977	         -5.09843563	         -0.23024201	          0.87989964	          0.35227391	        -10.37119304	        -13.30925646	         -1.91438877	        -32.85480313	        -41.60020541	        -16.62944890	         -5.95238481	         84.41513269	          1.29064245	        -10.30000862	        -81.68976826	          6.50029445	        -13.88649135	          7.22141070	        -17.24351793	        -22.71754733	         -8.05342540	         45.88819913	        -15.99697733	         22.33136663	        143.49853464	         59.63774115	        -19.24178048	         10.55420353	        -71.70520133	          3.61197005	        -44.76913537	         54.18184121	         63.62188474	          1.52664758	         25.27134376	
